<?xml version="1.0" encoding="UTF-8" standalone="no"?>
<!-- Generator: Adobe Illustrator 22.1.0, SVG Export Plug-In . SVG Version: 6.00 Build 0)  -->

<svg
   xmlns:dc="http://purl.org/dc/elements/1.1/"
   xmlns:cc="http://creativecommons.org/ns#"
   xmlns:rdf="http://www.w3.org/1999/02/22-rdf-syntax-ns#"
   xmlns:svg="http://www.w3.org/2000/svg"
   xmlns="http://www.w3.org/2000/svg"
   xmlns:sodipodi="http://sodipodi.sourceforge.net/DTD/sodipodi-0.dtd"
   xmlns:inkscape="http://www.inkscape.org/namespaces/inkscape"
   version="1.1"
   id="Layer_1"
   x="0px"
   y="0px"
   viewBox="0 0 2560 1440"
   style="enable-background:new 0 0 2560 1440;"
   xml:space="preserve"
   sodipodi:docname="general.svg"
   inkscape:version="0.92.3 (2405546, 2018-03-11)"><metadata
     id="metadata4631"><rdf:RDF><cc:Work
         rdf:about=""><dc:format>image/svg+xml</dc:format><dc:type
           rdf:resource="http://purl.org/dc/dcmitype/StillImage" /><dc:title>General</dc:title></cc:Work></rdf:RDF></metadata><defs
     id="defs4629" /><sodipodi:namedview
     pagecolor="#ffffff"
     bordercolor="#666666"
     borderopacity="1"
     objecttolerance="10"
     gridtolerance="10"
     guidetolerance="10"
     inkscape:pageopacity="0"
     inkscape:pageshadow="2"
     inkscape:window-width="1920"
     inkscape:window-height="1016"
     id="namedview4627"
     showgrid="false"
     inkscape:snap-page="true"
     inkscape:zoom="0.1767767"
     inkscape:cx="693.70789"
     inkscape:cy="76.03537"
     inkscape:window-x="0"
     inkscape:window-y="27"
     inkscape:window-maximized="1"
     inkscape:current-layer="Layer_1" /><style
     type="text/css"
     id="style4617">
	.st0{fill:#00589D;}
</style><title
     id="title4619">General</title><path
     style="fill:#00589d"
     inkscape:connector-curvature="0"
     id="path4621"
     d="M 698,1440 C 616.2,1434.1 536.3,1423.8 460.9,1411 372.8,1396.2 290,1377.8 218.5,1355.5 148.8,1333.8 91.3,1308.6 50,1281.2 28.6,1267.1 12.1,1252.6 0,1237.9 V 1440 c 232.61941,0.7489 465.55865,-1.1893 698,0 z"
     class="st0"
     sodipodi:nodetypes="ccccccc" /><path
     style="fill:#00589d"
     inkscape:connector-curvature="0"
     id="path4623"
     d="m 2131.2,113.7 c 133.5,37.1 243.3,80.4 322.1,127.6 48.2,28.8 83,58.5 106.7,88.7 V 0 H 1523 c 48.7,6 96.5,12.4 143.5,19.4 169,25 327.7,56.2 464.7,94.3 z"
     class="st0" /></svg>