<?xml version="1.0" encoding="UTF-8" standalone="no"?>
<!-- Generator: Adobe Illustrator 22.1.0, SVG Export Plug-In . SVG Version: 6.00 Build 0)  -->

<svg
   xmlns:dc="http://purl.org/dc/elements/1.1/"
   xmlns:cc="http://creativecommons.org/ns#"
   xmlns:rdf="http://www.w3.org/1999/02/22-rdf-syntax-ns#"
   xmlns:svg="http://www.w3.org/2000/svg"
   xmlns="http://www.w3.org/2000/svg"
   xmlns:sodipodi="http://sodipodi.sourceforge.net/DTD/sodipodi-0.dtd"
   xmlns:inkscape="http://www.inkscape.org/namespaces/inkscape"
   version="1.1"
   id="Layer_1"
   x="0px"
   y="0px"
   viewBox="0 0 2560 1440"
   xml:space="preserve"
   sodipodi:docname="title.svg"
   width="2560"
   height="1440"
   inkscape:version="0.92.3 (2405546, 2018-03-11)"><metadata
     id="metadata19"><rdf:RDF><cc:Work
         rdf:about=""><dc:format>image/svg+xml</dc:format><dc:type
           rdf:resource="http://purl.org/dc/dcmitype/StillImage" /><dc:title>Title screen</dc:title></cc:Work></rdf:RDF></metadata><defs
     id="defs17" /><sodipodi:namedview
     pagecolor="#ffffff"
     bordercolor="#666666"
     borderopacity="1"
     objecttolerance="10"
     gridtolerance="10"
     guidetolerance="10"
     inkscape:pageopacity="0"
     inkscape:pageshadow="2"
     inkscape:window-width="1920"
     inkscape:window-height="1016"
     id="namedview15"
     showgrid="false"
     inkscape:snap-page="true"
     inkscape:zoom="0.1767767"
     inkscape:cx="-342.27761"
     inkscape:cy="339.01465"
     inkscape:window-x="0"
     inkscape:window-y="27"
     inkscape:window-maximized="1"
     inkscape:current-layer="Layer_1" /><style
     type="text/css"
     id="style2">
	.st0{fill:#00589D;}
</style><title
     id="title4">Title screen</title><path
     class="st0"
     d="M 0,0 V 202.1 C 30.1,175.1 81,149.8 151,128.2 249.6,97.8 385.4,74.8 538.6,61.3 700.7,47 879,43.9 1057.3,50.5 c 193.6,7.2 383,24.6 560.2,46.9 178.2,22.5 345.6,50.5 490.1,84.8 140.8,33.4 256.6,72.3 339.7,114.7 50.8,25.9 87.7,52.6 112.7,79.8 V 0 Z"
     id="path6"
     inkscape:connector-curvature="0"
     style="fill:#00589d"
     sodipodi:nodetypes="ccccccccccc" /><path
     class="st0"
     d="m 1414.6,1440 c -165.7,-5.2 -327.7,-14.3 -480.6,-25.4 -178.5,-13 -346.3,-29.2 -491.3,-48.7 C 301.4,1346.8 185,1324.7 101.3,1300.7 58,1288.3 24.6,1275.6 0,1262.7 V 1440 Z"
     id="path8"
     inkscape:connector-curvature="0"
     style="fill:#00589d"
     sodipodi:nodetypes="ccccccc" /><path
     class="st0"
     d="m 2560,1353.5 c -27.5,17.3 -81.6,33.5 -160.2,47 -98.1,16.9 -233.5,29.5 -386.5,36.8 -21.6,1 -43.5,1.9 -65.7,2.7 H 2560 Z"
     id="path10"
     inkscape:connector-curvature="0"
     style="fill:#00589d" /></svg>